<?xml version="1.0" encoding="utf-8"?>
<!-- Generator: Adobe Illustrator 21.1.0, SVG Export Plug-In . SVG Version: 6.00 Build 0)  -->
<svg version="1.1" id="Layer_2" xmlns="http://www.w3.org/2000/svg" xmlns:xlink="http://www.w3.org/1999/xlink" x="0px" y="0px"
	 viewBox="0 0 514 412" style="enable-background:new 0 0 514 412;" xml:space="preserve">
<style type="text/css">
	.st0{fill:#231815;}
	.st1{fill:#727171;}
	.st2{fill:#595757;}
	.st3{fill:#FFFFFF;}
</style>
<polygon class="st0" points="381.1,267.8 254,280.4 349.4,219.4 457.5,218.9 "/>
<polygon class="st0" points="223.2,301.2 142,258.2 217.1,241.6 286.9,287.1 "/>
<polygon class="st0" points="58.9,231.9 18.9,174.9 107.8,207.8 145.9,264.2 "/>
<g>
	<path class="st1" d="M502.2,164.9c-0.1,0.4-0.2,0.8-0.5,1.2L476,208.9c-23.7,20.3-37.6,29.3-37.6,29.3s-0.5,8.7-3.1,11.6
		c-7.7,8.8-24.2,19.5-24.5,19.7c-1.9,0.5-3.9,0.6-5.9,0.5c1.1-0.1,2.1-0.3,3.2-0.7c1.7-0.2,3.1-1.2,3.9-2.7
		c7.1-14.1,11.7-47,7.7-62.8c-0.6-1.7-1.2-3.3-2-4.9c-0.3-0.4-0.5-0.8-0.8-1.2c-5.7-8.5-13.6-16.1-22.8-19.5
		c-0.5-0.2-1.1-0.4-1.6-0.5c-4.8-1.5-10.1-2.2-15.7-2.1c-1.8,0-3.4,1-4.3,2.6c-0.2,0.4-0.4,0.8-0.6,1.1l1.3-4
		c0.1-0.4,0.5-1.1,0.8-1.4c4.8-5.7,19.1-10.1,22.9-10.1c0.2,0,0.4-0.1,0.6-0.1c1.8,0,11.1,0.3,17.9,2.5c0,0,0,0,0,0
		c0.6,0.2,1.2,0.5,1.8,0.7c8.3,3.8,15.5,11.5,21.6,18.7c12.5-7.4,24.1-15.2,34.9-23.4c1.1-0.8,2.5-1.2,3.8-1L502.2,164.9z"/>
	<path class="st1" d="M126.6,252.6c-4.2-1.2-6.9-4.7-6-7.7c0.9-2.9,4.7-4.4,8.8-3.4c0.5-4,3.2-6.9,9.3-7.9c0.7-2.1,1.5-4.1,2.5-6
		C81,201.7,36.6,178.1,15.9,148c0,0.1,0,0.1,0,0.2c1.1,19.8,3.7,35.4,8.7,52.5c21.9,34.6,97.4,72.1,109.2,80.4
		c1.2,0.8,2.1,1.4,2.5,2.7l0.9,3.4l-6.3-34.2C129.5,253.1,128.1,253,126.6,252.6z M44.2,198.9c-1.6,1-4.5-0.8-6.5-4
		c-2-3.2-2.4-6.6-0.8-7.6c1.6-1,4.5,0.8,6.5,4C45.5,194.5,45.8,197.9,44.2,198.9z M83.6,226.1c-1.6,2.2-5.6,1.9-9-0.6
		s-4.8-6.2-3.2-8.4s5.6-1.9,9,0.6C83.8,220.2,85.2,223.9,83.6,226.1z"/>
	<path class="st1" d="M256.1,294.4c1.5-2.6,3.2-5.1,5.2-7.1c0.1-1,0.1-2,0.2-3c-0.6,0.2-1.2,0.3-1.8,0.4c-5.1,0.7-9.7-1.5-10.2-5.1
		s3.2-7,8.3-7.7c1.3-0.2,2.6-0.2,3.7,0c-0.3-8.6-1.5-16.7-3.7-23.5c-11.7,2.1-23.8,4-36.3,5.7c-5.9,1-14.7,0.9-19.3-1
		c-16.4-6.7-32-13-46.7-19.3c-0.3,0.5-0.6,1.1-0.8,1.6c2.1,1.9,2.5,3.3,1.8,5l6.2,34.8c3.8-0.6,7.6-1.6,11-2.8
		c-0.2-0.9-0.3-1.7,0-2.5c1-3,5.6-4.1,10.2-2.4c1.4,0.4,2.6,1.1,3.7,2c0,0,0,0,0,0c0.1,0.1,0.2,0.2,0.3,0.3c0.4,0.3,0.7,0.7,1,1
		c0,0,0.1,0.1,0.1,0.1l0,0c1.3,1.6,1.8,3.3,1.3,4.9c-1,2.9-5.5,4-10,2.5l-3.3,2.8c-0.7,0.4-1.4,0.6-2.1,0.7l-10.9,0.9l3.2,17.8
		l4.2-0.2l15.4,6l0,0c16,5.7,22.2,7,32.9,7.2c0.1,0.2,0.2,0.3,0.5,0.4C228.9,303.1,241.6,295.9,256.1,294.4z"/>
	<path d="M23.6,133.7c2.3,7.3,9.2,15.3,19,23.4c7-26.9,54.1-61.6,113.6-69c11.6-1.4,27-2.8,44.5-8.4c11.1,1.5,21-0.1,29.3-5.7
		c8.5,3.7,19.4,2.7,28.5-0.8c6.3,8,20.2,6.1,20.2,6.1s6,4.8,13.3,4c94.7,12.2,131.4,69.1,130.3,70.7c1.6,4-0.5,8.3-4.7,12.8
		c0.1,0,0.2-0.1,0.2-0.1c57.5-48-17.5-118.4-133-130c-8.2-0.8-2.7-5.6-2.7-5.6l19.5-3.5c-8.3-10.7-28-19-42.3-3.3
		c-8.4-4-15.9-5.8-26.5-0.9c-12.5-17.1-39.6-11.6-68.1,3.3c0,0,0,0,0,0L155.8,39C79.3,56.7,14.3,89.7,23.6,133.7z"/>
	<path class="st1" d="M285.7,300c2.3-0.6,4.6-1.2,6.9-1.9c-0.7-4.9-3.7-8.3-8.7-10.3c-2.2-0.5-4.2-0.6-5.9-0.5
		c-0.2,4.4-0.7,7.6-1.5,8.9C279.6,297.3,282.7,298.5,285.7,300z"/>
	<path class="st1" d="M412.5,210.2c-0.1-2.9-1.3-5.9-3.2-8.7c-38,18.4-82.9,33.3-136,44c3,11.4,4.5,24.4,4.7,34.5
		c2.4-0.1,4.9,0,7.7,0.4c8.9,2.3,14.6,8,17,15c45.4-12.6,92.4-27.5,92.2-30.5c0,0.3,0,0.6,0.1,0.9l6.5-5
		C411,253.3,412.8,231.2,412.5,210.2z M329.5,265.1c-5,1-9.6-0.8-10.2-4c-0.6-3.2,2.9-6.6,7.9-7.6c5-1,9.6,0.8,10.2,4
		S334.5,264.1,329.5,265.1z M391.5,240.6c-3.9,2.2-8.1,2.1-9.5-0.2s0.7-6.1,4.5-8.3c3.9-2.2,8.1-2.1,9.5,0.2
		C397.4,234.6,395.4,238.3,391.5,240.6z"/>
	<path class="st2" d="M412,266.6c-0.7,1.5-2.2,2.5-3.9,2.7c-1.1,0.3-2.1,0.5-3.2,0.7c-4.7-0.4-9.1-2.3-10-4.2l6.5-5
		c9.5-7.3,11.3-29.5,11-50.5c-0.1-2.9-1.3-5.9-3.2-8.7c-38,18.5-82.9,33.3-136,44c-2.8-10.6-7-19.7-12.8-23.8c-2-1.4-4-2.8-6.5-2.7
		c-1.9-0.2-5.1,0-9.3,0.5c-1.5,0.2-2.9,1.1-3.7,2.4c-1.7,2.8-1.8,5.9-1.4,8.6l6.6,0.6c5.3,3.4,9.1,9.6,11.6,17.3
		c-11.7,2.1-23.8,4-36.3,5.7c-5.9,1-14.7,0.9-19.3-1c-16.4-6.7-32-13-46.8-19.3c1-1.7,2.8-3.5,5.9-4.5c2.3-0.8,5.2-1.9,8-2.4
		c9.4,4.2,16.5,7.5,27.5,9.2c-0.9-4.3-0.8-9.5,0-14.2c0,0,3-0.2,4.7-0.3c1.4-0.1,2.9,0.1,4.1,1l9.9,6.6c0.7,0.4,1.4,0.7,2.2,0.7
		l11.5,0c-3.3-6.2-6.5-12.1-9.4-17.5c2.2-5,6.2-1.8,16-1.1c60.5,4.1,99.3-8.8,132.6-21.6l0.2-0.6l3.1-9.6c0.2-0.4,0.4-0.8,0.6-1.1
		c0.9-1.6,2.5-2.6,4.3-2.6c5.6-0.1,10.9,0.7,15.7,2.1c0.5,0.2,1.1,0.3,1.6,0.5c9.2,3.4,17.1,11,22.8,19.5c0.3,0.4,0.5,0.8,0.8,1.2
		c0.8,1.6,1.4,3.2,2,4.9C423.7,219.6,419.1,252.5,412,266.6z"/>
	<path class="st2" d="M150,217.4C150,217.4,150.1,217.4,150,217.4c-3.9,2.9-6.8,6.3-8.9,10.3C81,201.7,36.6,178.1,15.9,148
		c-6.7-26.1-6.6-27.7-2.2-41c20.7-38.7,66.4-59.1,151-80.3L155.8,39C79.3,56.7,14.3,89.7,23.6,133.7c1.2,3.7,3.5,7.5,6.7,11.4
		c3.2,3.9,7.4,7.9,12.3,12C50.3,169,109,201,150,217.4z"/>
	<path class="st2" d="M284.8,36.7c115.5,11.5,190.5,82,133,130c-0.1,0-0.2,0.1-0.2,0.1c-0.1,0.1-0.1,0.1-0.2,0.2c0,0-0.1,0-0.1,0
		c0,0-0.1,0-0.1,0.1c8.3,3.8,15.5,11.5,21.6,18.7c12.5-7.4,24.1-15.2,34.9-23.5c1.1-0.8,2.5-1.2,3.8-1l24.7,3.7
		c0.4-1.9-0.6-3.9-2.6-4.6l-26.5-9c-1.1-0.4-2.3-0.3-3.4,0.4L445,166.5c17.4-34.3,11.8-54.5-7.7-76.5c-42-37.7-83.2-52.8-135.7-62.3
		l-19.5,3.5C282.1,31.1,276.6,35.9,284.8,36.7z"/>
	<path class="st3" d="M229.3,229.8l-11.5,0c-0.8,0-1.6-0.2-2.2-0.7l-9.9-6.6c-1.2-0.8-2.6-1-4.1-1c-1.7,0.1-4.7,0.3-4.7,0.3l-0.2,0
		l-24.4,4.4l-2.9,0.5c-2.8,0.5-5.7,1.6-8,2.4c-3.1,1-4.9,2.8-5.9,4.5c-0.3,0.5-0.6,1.1-0.8,1.6c2.1,1.9,2.5,3.3,1.8,5l6.2,34.8
		c3.8-0.6,7.5-1.6,11-2.8c3.9-1.4,7.4-3,10.2-5c2.3,0.4,5.4,3.4,5.1,3.4l-8.7,7.4l-3.3,2.8c-0.6,0.4-1.4,0.6-2.1,0.7l-10.9,0.9
		l3.2,17.8l4.2-0.2l15.4,6l0,0l-20.3,8.5c-0.6,0.3-1.3,0.3-2,0.2l-17.4-2.4c-2-0.3-3.7-1.8-4.2-3.7l-5.7-21.6l-6.3-34.2l-1.5-8.2
		c-0.1-1.2-0.1-2.3,0-3.3c0.5-4,3.2-6.9,9.3-7.9c0.7-2.1,1.5-4.1,2.5-5.9c2.1-3.9,5-7.4,9-10.3c0.2-0.1,0.4-0.1,0.7-0.2
		c15.4-4.6,36.3-8.8,60.1-10.4c1-0.1,2,0.2,2.8,0.8l3.9,2.9l2.4,1.8C222.8,217.7,226,223.6,229.3,229.8z"/>
	<path class="st3" d="M302.2,313.2c2.2-6.2,2.3-12.4,0.5-17.8c-2.4-7.1-8.1-12.7-17-15c-2.8-0.4-5.4-0.5-7.7-0.4
		c-0.3-10.1-1.7-23.1-4.7-34.5c-2.8-10.6-7-19.7-12.8-23.8c-2-1.4-4-2.8-6.5-2.7c-1.9-0.2-5.1,0-9.3,0.5c-1.5,0.2-2.9,1.1-3.7,2.4
		c-1.7,2.8-1.8,5.9-1.4,8.6l6.6,0.6c5.3,3.4,9.1,9.6,11.6,17.3c2.2,6.8,3.4,14.9,3.7,23.5c0.2,4.1,0.1,8.2-0.1,12.4
		c-0.1,1-0.1,2-0.2,3c-2,2.1-3.7,4.5-5.2,7.1c-14.5,1.4-27.3,8.7-36,19.3c-7.5,9.2-12,20.9-12,33.6c0,29.4,23.8,53.3,53.3,53.3
		c29.4,0,53.3-23.8,53.3-53.3C314.7,334.4,310,322.4,302.2,313.2z M282.9,317.9l-11.4,0.8c-1.7,0.1-3.1,1.1-4,2.5
		c-11.6,19.7-17.6,44.6-23.5,72.8c-2.4,1.1-3.1,0.9-4.3-1.8c6.8-24.5,13.7-49.4,22.3-72.3c0.6-1.6,0.3-3.4-0.7-4.8l-4.8-6.3
		c-0.3-0.4-0.4-0.9-0.4-1.3c0-0.7,0.4-1.4,1.1-1.7c6.1-2.9,11.3-3.7,15.5-2.5c5,1.4,8.9,5.4,11.8,11.6
		C285.1,316.3,284.3,317.8,282.9,317.9z M285.7,300c-2.9-1.5-6-2.7-9.3-3.7c0.8-1.3,1.3-4.5,1.5-9c1.8-0.1,3.7,0,5.9,0.5
		c5,2.1,8.1,5.4,8.7,10.3c0.2,1.8,0.1,3.7-0.3,5.9C290.2,302.6,288,301.2,285.7,300z"/>
	<path d="M282.9,317.9l-11.4,0.8c-1.7,0.1-3.1,1.1-4,2.5c-11.6,19.7-17.6,44.6-23.5,72.8c-2.4,1.1-3.1,0.9-4.3-1.8
		c6.8-24.5,13.7-49.4,22.3-72.3c0.6-1.6,0.3-3.4-0.7-4.8l-4.8-6.3c-0.3-0.4-0.4-0.9-0.4-1.3c0-0.7,0.4-1.4,1.1-1.7
		c6.1-2.9,11.3-3.7,15.5-2.5c5,1.4,8.9,5.4,11.8,11.6C285.1,316.3,284.3,317.8,282.9,317.9z"/>
</g>
</svg>
