<?xml version="1.0" encoding="utf-8"?>
<!-- Generator: Adobe Illustrator 21.1.0, SVG Export Plug-In . SVG Version: 6.00 Build 0)  -->
<svg version="1.1" id="Layer_1" xmlns="http://www.w3.org/2000/svg" xmlns:xlink="http://www.w3.org/1999/xlink" x="0px" y="0px"
	 viewBox="0 0 360 386" style="enable-background:new 0 0 360 386;" xml:space="preserve">
<path d="M239,39c-0.9,1.8-1.9,3.6-2.8,5.5c0.2-0.3,0.3-0.7,0.5-1.1C237.5,41.9,238.2,40.5,239,39z"/>
<path d="M290.7,182.2c25.8-13,49.4-24.3,63.5-36.3c-4.3-8.5-18.5-10.7-42-4.3c16.3-10,30.8-21.4,39.3-32.1
	c-18.5-15.4-48,3.4-81.9,27c29.3-25.2,64.8-57,66.9-70.8c-14.5-9.8-35.2,6.6-60.4,23.9c17.5-16,39.9-43.7,42.1-55.7
	c-19.2-2.8-44.3,21.5-67.6,46.2c-0.1,0.1-0.3,0.3-0.4,0.4c12.2-17.5,27.3-36.9,34.7-48.6c0.4-0.7,0.8-1.3,1.3-2c1.8-3,3-5.3,3.2-6.8
	c2.3-12.5-6.6-11.6-15.6-6.2c-0.1-8-7-10.7-17.3-3.4c-4.9,3.3-9.4,10.5-13.9,18.7c-1.1,2.2-2.3,4.4-3.6,6.8
	c-0.9,1.8-1.9,3.6-2.8,5.5c0.2-0.3,0.3-0.7,0.5-1.1c6.2-13.4,13-29,9.9-35.2c-7.6-2.7-15.9,5.3-22.5,16.1c0.4-3.3,0.3-6.3-2.6-7.2
	c-8.8,2.2-16.4,13.3-20.2,23.2c-9.9-8.1-19.8,13.9-22.6,24.5c-12.9-2-20.8,12.2-23,34.7c-5.4-1-11,3.7-14.3,9
	c-0.8,38.6-2.9,74.1-9.6,99.9c-0.3,1.3-0.7,2.5-1,3.7c-13-0.5-27.8,1-43.6,3.6c-46.4-10.2-71.5,12.5-69.8,29.5
	c-4.9,2.8-8.2,5.2-9.5,9.1c4.7,0.2,7-0.3,12.2,0c0,0,0,0.1,0,0.1c3.9,11.3,8.4,16.3,9.8,17.7c0.1,0.1,0.2,0.2,0.3,0.3
	c0,0,0.1,0.1,0.1,0.1c-0.4,1-0.5,2.5-0.3,4.4c1.5,13.1,18.2,43.9,52.2,52.5L47,347c-0.3,0.2-0.6,0.4-0.8,0.7l-10.3,16.8
	c-0.3,0.5-0.4,1-0.2,1.6c1,3.4,3,8.9,5.8,6.9c4.2,10,10.7,4.1,10.4,2.6c-3.1,3.8-6-1.5-7.3-7.4c4.4,3.1,7.7,3.5,9.9,0.7
	c-7.9,1.8-6.3-12.1-4.5-12.6c0,0,5.6-3.7,4.9-7.2l33.3-17.3c0.1,0,0.2,0.1,0.3,0.1c13,4,32.5,1,49.9-5.2l-23.1,17.9
	c-2.6,2.4-6.4,8.9-8.8,16.7c-0.3,1.1,0.3,2.2,1.3,2.5l8.2-1c3.3,10.5,12.8,12,13.5,3.3c-1.5,2.7-4.8,3.8-6.8,1.5
	c2.9,0.1,5.3-0.4,6.5-5c-2.3,2.4-4.5,3.9-6.9,2.1l-2.1-11.7l5.1-10l19.6-16c2.6-1.7,4.8-3.2,6.8-4.6c10.9-7.4,14.8-10.8,21.5-17.4
	c0.1-0.1,0.2-0.2,0.2-0.3c24.8,5.8,104.7,5.3,104.8,4c-0.5-1-1.4-2-3.6-2.6c0,0,11.2,0.2,17.1-0.2c-1.4-3-5.1-4.3-9.4-5.8l9.8-0.4
	c-2.5-2.9-5.5-5.5-10.7-7.1l6-0.1c-4.9-4.6-12.2-7.6-18.4-9c-12.8-13.8-35.3-24.5-58.6-33l20.9-4.3c-0.3-5.3-4.7-10.9-10.8-14.9
	l122.6-44.1C342.2,174.8,322,175.4,290.7,182.2z"/>
<path d="M286.2,29.9c-0.4,0.6-0.8,1.3-1.3,2C285.3,31.2,285.7,30.6,286.2,29.9z"/>
<path d="M242.6,32.2c-1.1,2.2-2.3,4.4-3.6,6.8C240.2,36.7,241.4,34.4,242.6,32.2z"/>
<path d="M30.3,272.5c-0.1-0.1-0.2-0.2-0.3-0.3C30.1,272.3,30.2,272.4,30.3,272.5z"/>
</svg>
