<?xml version="1.0" encoding="utf-8"?>
<!-- Generator: Adobe Illustrator 21.1.0, SVG Export Plug-In . SVG Version: 6.00 Build 0)  -->
<svg version="1.1" id="Layer_1" xmlns="http://www.w3.org/2000/svg" xmlns:xlink="http://www.w3.org/1999/xlink" x="0px" y="0px"
	 viewBox="0 0 360 386" style="enable-background:new 0 0 360 386;" xml:space="preserve">
<style type="text/css">
	.st0{fill:#414B67;}
	.st1{fill:#E5E5E5;}
</style>
<path class="st0" d="M239,39c-0.8,1.4-1.5,2.9-2.3,4.4c-0.2,0.4-0.3,0.7-0.5,1.1C237.1,42.7,238,40.8,239,39z"/>
<path class="st1" d="M152.5,200.8c10.9-19.1,58-107.8,84.2-157.4c6.2-13.4,13-29,9.9-35.2c-7.6-2.7-15.9,5.3-22.5,16.1
	c0.4-3.3,0.3-6.3-2.6-7.2c-8.8,2.2-16.4,13.3-20.2,23.2c-9.9-8.1-19.8,13.9-22.6,24.5c-12.9-2-20.8,12.2-23,34.8
	c-5.4-1.1-11,3.7-14.3,9c-0.8,38.6-2.9,74.1-9.6,99.9C138.2,200.1,145.4,198.3,152.5,200.8z"/>
<path class="st1" d="M286.2,29.9c-0.4,0.7-0.8,1.3-1.3,2C285.4,31.2,285.8,30.5,286.2,29.9z"/>
<path class="st1" d="M239,39c1.3-2.4,2.5-4.7,3.6-6.8C241.4,34.4,240.2,36.7,239,39z"/>
<path class="st1" d="M290.7,182.2c25.8-13,49.4-24.3,63.5-36.3c-4.3-8.5-18.5-10.7-42-4.3c16.3-10,30.8-21.4,39.3-32.1
	c-18.5-15.4-48,3.4-81.9,27c29.3-25.2,64.7-57,66.9-70.8c-14.5-9.8-35.2,6.6-60.4,23.9c17.5-16,39.9-43.8,42.1-55.8
	c-19.2-2.8-44.3,21.5-67.6,46.2c-26.8,36.2-55.4,78.8-88.9,126.2c7.5,6.1,14.6,15.9,20.5,26.4c15.2-11,27.7-6.8,38.4-1.4l122.6-44.1
	C342.2,174.8,322,175.4,290.7,182.2z"/>
<path class="st1" d="M173.3,304.9c-6.7,6.6-10.6,10-21.5,17.4l-13.5,4.4c-17.5,6.1-37,9.2-49.9,5.2c-0.1,0-0.2-0.1-0.3-0.1l-5.8-2.3
	c-34-8.5-50.7-39.4-52.2-52.5l2.7,2.5c10.1,5.5,21,6,38-1.5c7.2,17.2,86.5,30.7,102.3,26.8L173.3,304.9z"/>
<path class="st1" d="M30.4,272.6c-0.2-0.1-0.3-0.3-0.5-0.4C30.3,272.5,30.4,272.6,30.4,272.6z"/>
<path class="st1" d="M30,272.2c0.2,0.1,0.3,0.3,0.5,0.4c22.9,2.3,45.7-17.4,45.7-17.4c-11.7,2.7-23.8,3.8-36.9-0.8l-19,0.1
	C24.1,265.8,28.5,270.8,30,272.2z"/>
<path class="st0" d="M282.5,300l9.8-0.4c-2.5-2.9-5.5-5.5-10.7-7.1l6-0.1c-4.9-4.6-12.2-7.6-18.4-9c-12.8-13.8-35.3-24.5-58.6-33
	l20.9-4.3c-0.3-5.3-4.7-10.9-10.8-14.9c-10.7-5.3-23.3-9.6-38.4,1.4c-5.9-10.5-13-20.3-20.5-26.4c33.5-47.4,62-89.9,88.9-126.2
	c-0.1,0.1-0.3,0.3-0.4,0.4c12.2-17.5,27.3-36.9,34.7-48.6c0.4-0.7,0.8-1.3,1.3-2c1.8-3,3-5.3,3.2-6.8c2.3-12.5-6.6-11.6-15.6-6.2
	c-0.1-8-7-10.7-17.3-3.4c-4.9,3.3-9.4,10.5-13.9,18.7c-1.1,2.2-2.3,4.4-3.6,6.8c-0.9,1.8-1.9,3.6-2.8,5.5c0.2-0.3,0.3-0.7,0.5-1.1
	c-26.2,49.6-73.3,138.3-84.2,157.4c-7.1-2.5-14.2-0.7-20.6,7.7c-0.3,1.3-0.7,2.5-1,3.7c-13-0.5-27.8,1-43.6,3.6
	c-46.4-10.2-71.5,12.5-69.8,29.5c-4.9,2.8-8.2,5.2-9.5,9.1c4.7,0.2,7-0.3,12.2,0c0,0,0,0.1,0,0.1l19-0.1c13.2,4.6,25.2,3.6,36.9,0.8
	c0,0-22.7,19.7-45.7,17.4c-0.4,1-0.5,2.5-0.3,4.4l2.7,2.5c10.1,5.5,21,6,38-1.5c7.2,17.2,86.5,30.7,102.3,26.8l0.2,0
	c0.1-0.1,0.2-0.2,0.2-0.3c24.8,5.8,104.7,5.3,104.8,4c-0.5-1-1.4-2-3.6-2.6c0,0,11.2,0.2,17.1-0.2
	C290.5,302.8,286.7,301.4,282.5,300z M56.3,239.9c0,0.2,0,0.3-0.1,0.5c-0.5,2.8-2.9,4.9-5.8,4.9c-3.3,0-5.9-2.6-5.9-5.9
	c0-3.3,2.6-5.9,5.9-5.9c3.3,0,5.9,2.6,5.9,5.9c0,0.1,0,0.2,0,0.4C56.2,239.8,56.3,239.8,56.3,239.9z M28,235.5
	c3.8-12.1,20.6-16.3,30.8-8.9C50.4,231,39.6,233.6,28,235.5z"/>
<path class="st0" d="M115.2,344.5c-2.6,2.4-6.4,8.9-8.8,16.7c-0.3,1.1,0.3,2.2,1.3,2.5l8.2-1c3.3,10.5,12.8,12,13.5,3.3
	c-1.5,2.7-4.8,3.8-6.8,1.5c2.9,0.1,5.3-0.4,6.5-5c-2.3,2.4-4.5,3.9-6.9,2.1l-2.1-11.7l5.1-10l19.6-16c2.6-1.7,4.8-3.2,6.8-4.6
	l-13.5,4.4L115.2,344.5z"/>
<path class="st0" d="M46.2,347.7l-10.3,16.8c-0.3,0.5-0.4,1.1-0.2,1.6c1,3.4,3,8.9,5.8,6.9c4.2,10,10.7,4.1,10.4,2.6
	c-3.1,3.8-6-1.6-7.3-7.4c4.4,3.1,7.7,3.5,9.9,0.7c-7.9,1.8-6.3-12.1-4.5-12.6c0,0,5.6-3.7,4.9-7.2l33.3-17.3l-5.8-2.3L47,347
	C46.6,347.2,46.4,347.4,46.2,347.7z"/>
<path class="st1" d="M28,235.5c11.6-1.9,22.4-4.5,30.8-8.9C48.6,219.3,31.8,223.4,28,235.5z"/>
<path d="M50.3,233.4c-3.3,0-5.9,2.6-5.9,5.9s2.6,5.9,5.9,5.9c2.9,0,5.3-2.1,5.8-4.9c-0.2,0.5-0.7,0.9-1.3,0.9
	c-0.8,0-1.4-0.6-1.4-1.4s0.6-1.4,1.4-1.4c0.7,0,1.3,0.5,1.4,1.2c0-0.1,0-0.2,0-0.4C56.3,236.1,53.6,233.4,50.3,233.4z"/>
<path class="st1" d="M56.3,239.9c0-0.1,0-0.1,0-0.2c0,0.2,0,0.4-0.1,0.7C56.2,240.2,56.3,240,56.3,239.9z"/>
<path class="st1" d="M54.9,238.5c-0.8,0-1.4,0.6-1.4,1.4s0.6,1.4,1.4,1.4c0.6,0,1.1-0.4,1.3-0.9c0-0.2,0.1-0.4,0.1-0.7
	C56.1,239,55.6,238.5,54.9,238.5z"/>
</svg>
