<?xml version="1.0" encoding="utf-8"?>
<!-- Generator: Adobe Illustrator 21.1.0, SVG Export Plug-In . SVG Version: 6.00 Build 0)  -->
<svg version="1.1" id="Layer_1" xmlns="http://www.w3.org/2000/svg" xmlns:xlink="http://www.w3.org/1999/xlink" x="0px" y="0px"
	 viewBox="0 0 250 250" style="enable-background:new 0 0 250 250;" xml:space="preserve">
<g>
	<g>
		<defs>
			<path id="SVGID_1_" d="M192.3,67.3c-6.9,24.2-24.8,40.4-39.9,36.1c-15.1-4.3-21.7-27.5-14.8-51.7c6.9-24.2,24.8-40.4,39.9-36.1
				C192.6,19.9,199.2,43.1,192.3,67.3L192.3,67.3z M85.6,11.2c-15.5,2.5-24.9,24.7-20.9,49.6c4,24.9,19.8,43.1,35.3,40.6
				c15.5-2.5,24.9-24.7,20.9-49.6C117,26.9,101.2,8.7,85.6,11.2L85.6,11.2z M26.4,79.8C11.9,85.5,7,107.3,15.4,128.3
				c8.4,21.1,26.9,33.5,41.3,27.8c14.4-5.7,19.3-27.5,10.9-48.6C59.3,86.5,40.8,74,26.4,79.8L26.4,79.8z M224.3,95.4
				c-14.3-6.1-33.1,5.9-42,26.7c-8.9,20.9-4.6,42.7,9.7,48.8c14.3,6.1,33.1-5.9,42-26.7C243,123.4,238.6,101.5,224.3,95.4
				L224.3,95.4z M190.6,226.1c17.6-18.7-30.4-96.1-65.7-97.7c-36.8-1.7-92.9,81.7-73.7,100.9c19.2,19.2,54.5,3.2,73.7,0
				C144.1,226.1,163.4,254.9,190.6,226.1L190.6,226.1z"/>
		</defs>
		<use xlink:href="#SVGID_1_"  style="overflow:visible;fill-rule:evenodd;clip-rule:evenodd;fill:#3E3A39;"/>
		<clipPath id="SVGID_2_">
			<use xlink:href="#SVGID_1_"  style="overflow:visible;"/>
		</clipPath>
	</g>
</g>
</svg>
