<?xml version="1.0" encoding="utf-8"?>
<!-- Generator: Adobe Illustrator 21.1.0, SVG Export Plug-In . SVG Version: 6.00 Build 0)  -->
<svg version="1.1" id="Layer_3" xmlns="http://www.w3.org/2000/svg" xmlns:xlink="http://www.w3.org/1999/xlink" x="0px" y="0px"
	 viewBox="0 0 760 780" style="enable-background:new 0 0 760 780;" xml:space="preserve">
<style type="text/css">
	.st0{fill:#FFFFFF;}
</style>
<path class="st0" d="M166.3,102.8c-28,2.5,3.2,88.6,11,100.1c0,0,10.7,23.9,12,31.6c5.3,31.1,0,50.1-9.5,78.6
	c-9.9,29.8,49.5,135.8,51.5,151s-9.5,29-7,63.5c1.6,22.7,13,70.8,30.3,91.5c-21.8-9.8-35.6-7.4-33.2,15.1
	c-5.3-7.1-14.5-0.3-13.3,7.4c-5.9,7.8-5.2,13.7,1.3,18c60.5,9.3,138.9,13.8,167.3,16.5c18.5,1.8,100.4,14.8,157.7,21
	c52.7,5.7,95.7,10.8,121,21.3c22.4,9.2,29.7,24.2,37.3,24.3c16.1,0,1.3-39-18.8-48.8c-17.5-8.5-69.1-21.2-104.3-23
	c-34.7-1.8-118.7-3.7-125-38.5c-9.3-50.8,12.8-59,12.8-87c0-12.4-13-19-11.2-50.8c2.9-52.5-7.1-109.5-26.6-141
	c-32.4-52.4-105.8-78-115-109c-6.8-22.7-6.8-51.2-1.5-61.5c8-15.5,9.4-91.5-4.8-93.8c-7-1.1-30.1,45.5-34,44.5
	c-21-6-36.5-6.5-56.8,4.4C201,138.6,177.5,101.4,166.3,102.8z"/>
</svg>
