<?xml version="1.0" encoding="utf-8"?>
<!-- Generator: Adobe Illustrator 21.1.0, SVG Export Plug-In . SVG Version: 6.00 Build 0)  -->
<svg version="1.1" id="Layer_2" xmlns="http://www.w3.org/2000/svg" xmlns:xlink="http://www.w3.org/1999/xlink" x="0px" y="0px"
	 viewBox="0 0 760 780" style="enable-background:new 0 0 760 780;" xml:space="preserve">
<style type="text/css">
	.st0{fill:#727171;}
	.st1{fill:#5D94CA;}
	.st2{fill:#FFFFFF;}
</style>
<g>
	<g>
		<path class="st0" d="M660.7,557.8c9.3,25.8,10,50.5,9,75c-2.7,28.3-26.5,57.9-30.2,67.7c-2,5.3,8.8,8.3,4.5,17.7
			c-3.3,7.1-108.7,4.8-139,3.3s-77.3-8.7-77.3-8.7c-21.1-4.7-27.3-16.7-17.7-23.3c7.1-2.9,14.2-4.3,18.3-14
			c-29.7-49.8-15.6-84.1-6.6-114.4c5.1-17.2,12-31.5,21.8-38.4c17.5-12.3,43.1-79.8,52.5-92.3c8.5-11.4,14.3-86,10.3-102.2
			c-4-16.2-21.7-24.4-27.1-26.7c-5.4-2.2-24.5-0.8-29.1-2.4c-4-1.5-9.8-10.1-16.8-18.6c-2.5-3-3.6-9.9-4.8-13c0-0.1,0-0.2-0.1-0.2
			c-2.5-6.8-3.8-11.9-1-14.5c0.1,0,0.1-0.1,0.2-0.2c5.5-5.3,25.7-30.1,29.8-40.6c3.6-9.1,42.5-26,59-33.8c1-0.5-6.5-22.9-1.5-23.9
			c3.3-0.6,9.8,14.2,11.5,13.6c2.4,2.4-1.8-39.8,6-42.6c6.9-2.5,45.9,73.3,50,75.7c17,4.3,42.3,61.5,41.3,76.3
			c-1.1,16.7,42.3,35.3,45,56c2.4,18.7-3,29-0.7,51.7c1.8,17.4,7.3,20.5,7.3,45.7C675.3,455.9,658.4,523,660.7,557.8z"/>
		<path d="M427.7,252.8c-0.1,0.1-0.1,0.1-0.2,0.2c-2.8,2.6-1.5,7.6,1,14.5l7.3-10.4L427.7,252.8z"/>
	</g>
	<g>
		<path d="M479.3,218.4L465,234.6l-1.2,1.4c-0.8,0.6-2.5,1.1-3.5-0.2c-1.1-1.6,1.7-3.6,2.3-3.7c-0.8-5.4,0.3-10.4,3.1-15.3
			c0.4-0.8,1.3-1.2,2.2-1l3.1,0.8L479.3,218.4z"/>
		<path class="st1" d="M470.6,217.6c-8.1,4.4-8.5,9.9-5.6,17l14.3-16.1L470.6,217.6z"/>
		<path d="M466.5,225.1c-1.1,3.4-0.7,6.5-0.7,6.5l3.8-12.2C469.6,219.4,467.6,221.7,466.5,225.1z"/>
		<circle class="st2" cx="469.4" cy="223" r="1.2"/>
	</g>
</g>
</svg>
