<?xml version="1.0" encoding="utf-8"?>
<!-- Generator: Adobe Illustrator 21.1.0, SVG Export Plug-In . SVG Version: 6.00 Build 0)  -->
<svg version="1.1" xmlns="http://www.w3.org/2000/svg" xmlns:xlink="http://www.w3.org/1999/xlink" x="0px" y="0px"
	 viewBox="0 0 960 720" style="enable-background:new 0 0 960 720;" xml:space="preserve">
<style type="text/css">
	.st0{fill:#727171;}
	.st1{fill:#595757;}
	.st2{fill:#3E3A39;}
	.st3{fill:#C9CACA;}
	.st4{fill:#FFFFFF;}
</style>
<g id="Layer_2">
	<g>
		<g>
			<g>
				<polygon class="st0" points="447.7,232.9 300.6,87.7 150.4,230.1 152.2,230.2 				"/>
				<polygon class="st1" points="179.2,232.9 301.7,114.4 414.1,228.8 437.8,234.8 301.2,96.7 155.8,232.3 				"/>
				<path class="st0" d="M172.8,243.1l0.6,17.5l-4.1-1.7l-2.1,109.7l4.9-3.7l259.5,2.2l-0.4-113.2c0.5-0.7,0.9-1.4,1-2.2l0,0
					l0.5-7.4L172.8,243.1z"/>
			</g>
			<path class="st2" d="M165.7,230.8l12.8-8.2l1.6,0.8c2.6,0.4,5.6,0.2,9-0.6l0.6-1.1l220.7,2.4l0.9,0.4l-0.1,1.3l11.7,0.3l11,7.3
				L165.7,230.8z"/>
			<polygon class="st3" points="162.8,230.6 300.8,100.9 434.5,233.2 448.7,233.6 300.6,87.3 147,233 			"/>
			<path class="st2" d="M150.3,230.3L300.6,87.7l147.1,145.2l2.3,0.1l-17.6-16.5l-8.1-89.5l-83.2-0.8l-37.3-36.7l0.1-2.3
				c0-0.2-0.1-0.4-0.3-0.5c-2.8-1.4-4-1.3-7-0.1c-0.2,0.1-0.4,0.4-0.3,0.6l0.8,2.4L260,124.8l-57.5-1.3c-0.3,0.4-0.1,0.7,0.3,1
				l-25.6,78.7L149,230.3L150.3,230.3z"/>
			<g>
				<path class="st1" d="M141.9,231.6L152,243c-0.1,6.5,2.2,9.8,10.2,11.4c2.4,0.6,6.3,1,7.1,3.2l0,1.4l4.1,1.7l-0.6-17.5l260,1.2
					l-0.5,7.4l11.3,0.2c0.8,0,0.7-0.2,0.9-0.5l0.2-1.4l3.1,0c0.8,0,0.9-0.3,1.1-0.7l0.6,0l0.8-2.6l0.5-0.2l5.1-12.7l-314.1-2.4
					C141.9,231.4,141.9,231.5,141.9,231.6z M157.1,248.5l3,0c1.3,1.3,2.3,1.6,2.8,0.3l6.7,0.3v4.4c-0.9-1.2-4.5-2.1-6-2.3
					c-4.5-0.6-7.1-1.5-7.4-3.5L157.1,248.5z"/>
				<path class="st3" d="M456.1,233l-2.6,0l-5.8-0.1l-295.5-2.7l-1.8-0.1l-0.1,0.1l-4.2,0l-4.2,0c-0.3,0.3-0.3,0.7-0.1,1.1
					l314.1,2.4l0.1-0.1C456.2,233.4,456.2,233.1,456.1,233z"/>
			</g>
			<polygon class="st3" points="167.3,371.7 169.7,241.7 431.7,243.1 431.7,368.7 423.8,368.7 423.8,251.3 177.8,249 175.2,369.2 
							"/>
			<path class="st2" d="M554.3,387.3l-122.6-20.2l0,0l-259.5-2.2l-4.9,3.7L146,383.3c-0.1,0.2-0.1,0.3,0,0.5l2.5,0l406,3.5
				L554.3,387.3z"/>
		</g>
	</g>
	<rect x="282.5" y="139" class="st3" width="37.3" height="45.3"/>
	<rect x="286.4" y="143.6" class="st2" width="29.4" height="35.9"/>
	<g>
		<path class="st0" d="M560.7,388.8l-2.4,3.9c-0.3,0.5-0.7,0.8-1.2,1.1l-13.2,6.8l0,9.1l1.3,0c0.3,0.4,0.3,0.7,0,1.1
			c0,0,0,0.9-0.1,1c-0.2,0.2-1.5,0.8-1.5,0.8c-0.1,0.8-0.4,1.2-0.9,1.4l0,0.5l-0.7,0.4v2.3c1.1,0.8,0.8,1,0,1.7l2.2,162.3l-12.9-0.1
			l0.6-162c-1-0.8-1.2-1,0-1.7l0-1.8l-0.8-0.6c0,0-0.1-0.1-0.1-0.1l-0.9-1.6l-0.6-0.2c-0.4-0.1-0.7-0.4-0.7-0.8l-0.2-1.2l-92.5-1.5
			l-0.6,2.7l-0.8,0.2l-0.6,1.4c-0.1,0.1-0.1,0.3-0.3,0.4l-0.6,0.6v2.1c1,0.5,0.7,0.9,0,1.4l0.1,10.3h-0.1l1.1,112.1l0.2,30.4
			l0.1,13.1H156c0,0-2-124.9-1.5-158.3c0.1-6.2-0.2-8.4-0.3-8.6c-0.5-1.8-2.3-1.9-2.4-8.9l0.2-16.1l-1-0.5l-6.6-0.1
			c-0.4-0.1-0.6-0.7-0.6-1.1c0-1.1,0-3.4,0-4.3c0-0.2-0.2,0-0.3-0.2c-0.1-0.3,0-1,0.3-1.1c0.3,0,5.3,0.1,5.3,0.1l-0.7-1.3l406,3.5
			l6.2,0.4C561.1,387.9,561.1,388.3,560.7,388.8z"/>
		<g>
			<path class="st4" d="M216.5,415.3v103h72.7v-103H216.5z M224,423.2h28.5v42.1H224V423.2z M224,470.8h28.5V513H224V470.8z
				 M286.5,513H258v-42.3h28.5V513z M286.5,465.3H258v-42.1h28.5V465.3z"/>
			<rect x="258" y="423.2" class="st2" width="28.5" height="42.1"/>
			<rect x="258" y="470.8" class="st2" width="28.5" height="42.3"/>
			<rect x="224" y="470.8" class="st2" width="28.5" height="42.3"/>
			<rect x="224" y="423.2" class="st2" width="28.5" height="42.1"/>
		</g>
		<g>
			<rect x="337.8" y="407" class="st4" width="62.6" height="153"/>
			<path class="st1" d="M343.7,415.3v137.3h50.7V415.3H343.7z M370.4,421.3h17.3v21h-17.3V421.3z M368.1,513h-16.8v-21.5h16.8V513z
				 M368.1,489.3h-16.8V468h16.8V489.3z M368.1,465.8h-16.8v-21.3h16.8V465.8z M368.1,442.3h-16.8v-21h16.8V442.3z M387.7,513h-17.3
				v-21.5h17.3V513z M387.7,489.3h-17.3V468h17.3V489.3z M387.7,465.8h-17.3v-21.3h17.3V465.8z"/>
			<rect x="370.4" y="421.3" class="st2" width="17.3" height="21"/>
			<rect x="370.4" y="491.5" class="st2" width="17.3" height="21.5"/>
			<rect x="351.4" y="491.5" class="st2" width="16.8" height="21.5"/>
			<rect x="351.4" y="468" class="st2" width="16.8" height="21.3"/>
			<rect x="351.4" y="444.5" class="st2" width="16.8" height="21.3"/>
			<rect x="351.4" y="421.3" class="st2" width="16.8" height="21"/>
			<rect x="370.4" y="444.5" class="st2" width="17.3" height="21.3"/>
			<rect x="370.4" y="468" class="st2" width="17.3" height="21.3"/>
		</g>
		<g>
			<path class="st3" d="M560.7,387.7l-6.2-0.4l-406-3.5l0.7,1.3c0,0-5-0.1-5.3-0.1c-0.3,0-0.4,0.8-0.3,1.1c0.1,0.3,0.3,0,0.3,0.2
				c0,0.9-0.1,3.2,0,4.3c0,0.4,0.3,1,0.6,1.1l5.5,0.1l1,0l1,0.5l-0.2,15.6v0.5c0.1,7,1.9,7.1,2.4,8.9c0.1,0.2,0.3,2.4,0.3,8.6
				c-0.5,33.4-2.1,158.5-2.1,158.5h16.9l0.2-168c0.4-0.5,0.5-1,0-1.5l0-3.1l1.2-2l0-1.6l0-0.6l108.3,0.6l3.7,1l1.2,0.3v0.9
				c0,0.3,0.1,0.5,0.3,0.7l2.4,2l0.1,2.3c-0.8,0.4-1.1,0.9-0.1,1.4l-1.6,153.6l13.8,0.2l0.1-3.1c1.3-1.9,1.6-3.4-0.2-3.9
				c0-0.5-0.3-1-1.1-1.1l-0.6-145.8c1-0.2,1.1-0.6,0-1.3l0-2.3l1.8-2c0.1-0.2,0.2-0.5,0.1-0.8l-0.2-0.7l0.1-0.4l0.2-0.7l121.7,0.9
				l0.2,0.8l0.4,1.7l0.9,0.5l0.2,1.5l0.7,0.6l0.1,2.3c-1.4,0.4-1,0.9,0,1.5L422.1,563c-0.7,0.1-1,0.6-1.3,1.1
				c-1.3,0.9-1.3,2-0.3,3.2l-0.5,0.3l-0.1,3.3l14.7,0.1l-0.2-30.4l-1.1-112.1h0.1l-0.1-10.3c0.7-0.4,1-0.9,0-1.4v-2.1l0.6-0.6
				c0.1-0.1,0.2-0.2,0.3-0.4l0.6-1.4l0.8-0.2l0.4-1.8l0.2-0.8l92.5,1.5l0,0.1l0.2,1.1c0,0.4,0.3,0.7,0.7,0.8l0.6,0.2l0.9,1.6
				c0,0.1,0.1,0.1,0.1,0.1l0.8,0.6l0,1.8c-1.2,0.6-1,0.9,0,1.7l-0.6,162l12.9,0.1L542,418.8c0.8-0.6,1.1-0.8,0-1.7v-2.3l0.7-0.4
				l0-0.5c0.4-0.2,0.8-0.6,0.9-1.4c0,0,1.2-0.6,1.5-0.8c0.1-0.1,0.1-0.3,0.1-0.5c0-0.3,0-0.6,0-0.6c0.3-0.4,0.3-0.7,0-1.1l-1.3,0
				l0-9.1l12.9-6.6l0.3-0.2c0.5-0.3,0.9-0.6,1.2-1.1l2.4-3.9C561.1,388.3,561.1,387.9,560.7,387.7z M159,414.5
				c-0.6,0.2-0.7,1.1-0.1,1.6l0,4.2l-0.4,24.3l-1.6,72.9c0,0,1.7-99.7,1.4-101.3c-0.2-1-0.5-1.5-1.3-2.7c-0.9-1.3-1.1-2-1.1-3.6
				l0.1-2.1l0.3-11.8l0.9,0.3l-0.3,10.7l-0.1,0.8l-0.2,1.2c0,0.2,0,0.3,0.1,0.4l2.4,2.4L159,414.5z"/>
			<path class="st1" d="M545.2,410.7c0.3-0.4,0.4-0.7,0-1.1l-1.3,0l0-9.1l12.9-6.6L150,391.8l1,0l1,0.5l-0.2,15.6l4.1,0l0.3-11.8
				l0.9,0.3l-0.3,10.7l-0.1,0.8l13.8,0.1l0-0.6l108.3,0.6l3.7,1l16,0.1l0.2-0.6l121.7,0.9l0.2,0.8l15.3,0.1l0.2-0.8l92.5,1.5l0,0.1
				l16.6,0.1C545.3,411,545.2,410.7,545.2,410.7z"/>
			<path class="st1" d="M531,414.8l-0.9-1.6l-0.6-0.2c-0.4-0.1-0.6-0.4-0.7-0.8l-0.3-2.7h-92.4l-0.6,2.7l-0.8,0.2l-0.6,1.4
				c-0.1,0.1-0.1,0.3-0.3,0.4l-0.6,0.6l0,2.1c1.1,0.5,0.7,0.9,0,1.4l0.1,10.3l59.4,0.1l0,1.6l0.9,0l1,1.3l0.3,0l0,1.8
				c-0.8,0.4-0.8,0.6,0,1.1l-1.2,145.1l10.9,1.7l-2.1-146.8c1-0.5,1.1-0.6,0-1.2l0-1.4l0.6,0c0.2-0.4,0.2-0.8,0.1-1.2l1.4-1.1l0-0.8
				c0.2-0.1,0.5-0.4,0.3-0.8l-0.8,0l6.5-3l0,1.6c-1.1,0.7-1.1,1.1,0,1.5L510,581.2l11.2-0.1l-1.6-153.4c0.9-0.8,0.9-0.9,0-1.4l0-1.8
				l0.7,0l0-0.7c0.4-0.1,0.7-0.4,0.8-1.1l1.1-0.3l0.1-1.2c0.3-0.5,0.4-0.7,0.2-1.1l-0.7,0l10.1-4.6l-0.8-0.6
				C531.1,414.9,531.1,414.8,531,414.8z"/>
		</g>
	</g>
	<g>
		<path class="st4" d="M207.8,254.3V359h47.6V254.3H207.8z M245.5,352.4h-28.6v-43.3h28.6V352.4z M245.5,305.1h-28.6v-40.7h28.6
			V305.1z"/>
		<rect x="216.9" y="309.1" class="st2" width="28.6" height="43.3"/>
		<rect x="216.9" y="264.4" class="st2" width="28.6" height="40.7"/>
	</g>
	<g>
		<rect x="286.2" y="309.1" class="st2" width="13.6" height="21.1"/>
		<rect x="286.2" y="331.3" class="st2" width="13.6" height="21.1"/>
		<rect x="300.9" y="309.1" class="st2" width="13.9" height="21.1"/>
		<rect x="300.9" y="331.3" class="st2" width="13.9" height="21.1"/>
		<rect x="286.2" y="264.4" class="st2" width="13.6" height="20.3"/>
		<rect x="300.9" y="264.4" class="st2" width="13.9" height="20.3"/>
		<rect x="286.2" y="285.8" class="st2" width="13.6" height="19.3"/>
		<rect x="300.9" y="285.8" class="st2" width="13.9" height="19.3"/>
		<path class="st4" d="M277.1,254.3V359h47.6V254.3H277.1z M286.2,264.4h13.6v20.4h-13.6V264.4z M286.2,285.8h13.6v19.3h-13.6V285.8
			z M286.2,309.1h13.6v21.1h-13.6V309.1z M286.2,331.3h13.6v21.1h-13.6V331.3z M314.8,352.4h-13.9v-21.1h13.9V352.4z M314.8,330.2
			h-13.9v-21.1h13.9V330.2z M314.8,305.1h-13.9v-19.3h13.9V305.1z M314.8,284.8h-13.9v-20.4h13.9V284.8z"/>
	</g>
	<g>
		<path class="st4" d="M346.8,254.3V359h47.6V254.3H346.8z M384.5,352.4h-28.6v-43.3h28.6V352.4z M384.5,305.1h-28.6v-40.7h28.6
			V305.1z"/>
		<rect x="355.9" y="309.1" class="st2" width="28.6" height="43.3"/>
		<rect x="355.9" y="264.4" class="st2" width="28.6" height="40.7"/>
	</g>
	<polygon class="st3" points="150,570.3 439.7,572.3 434.3,561.3 167.2,560 	"/>
</g>
<g id="Layer_4">
	<path d="M62.7,524.7c2.7,1.7,12.7,6.3,12.7,6.3l10.7-3.2c0,0,18-1.2,21.3,0c3.3,1.2,26,7.5,26,7.5l21-3.3c0,0,13.3-1.3,13.3,1
		s5.9,5.7,5.9,5.7S183,526.3,184,526s11.3-5.7,13-1.3c1.7,4.3,8.7,10.7,8.7,10.7l14.3-2l7,7c0,0,12.7,1.3,14.3,1.3
		c1.7,0,6.7,2.7,7,4.7c0.3,2,4.2,18,4.2,18h11.2l13.7-5.7l7.5,8.3c0,0,3.8,5.3,6.8,6s5,8.2,5,8.2l-5.7,2.9l5.7,7.9l-13.3,6
		l-218.8,2.3L51,569.7L62.7,524.7z"/>
	<path d="M426.7,560c-1-13.3,2.3-5,5-5.7c2.7-0.7,0.8-19.5,4.3-20.3c4.1-0.9,5.7-3.6,8.7-4.8c3-1.2,0-13.6,5-6.2
		c5,7.4,5.3,17.4,7,16.7c1.7-0.7,3.3-22.3,10-25.3c6.7-3,15.9-7.3,15.9-7.3s4.1,14.7,2.7,20.3c-1.3,5.7-0.7,11.3,2.7,10.7
		s9.3-9,10.3-3.3c1,5.7,3,11.7,3.3,13c0.3,1.3,8.6,1.3,8.6,0.3c0-1,0.4-14.3,3.8-15c3.3-0.7,10.5-1.7,8.7,3.7
		c-1.8,5.3-3.7,10.7,0.3,11.3s6.2-2.7,9-3.7S540,529.7,542,528s6.7-12.7,11.3-6.7c4.7,6,6.4,5.7,7.7,16c1.3,10.3-1.4,12.7,6.3,13
		c7.7,0.3,24.3-11.7,25.3-12c1-0.3,11,2.7,12.3,4c1.3,1.3,9,5.3,2,10.3s4.3,12.7,6,14.3c1.7,1.7,4.4,17,4.4,18.7c0,1.7-9,10-9,10
		l-1.7,12.7l-168.7-8c0,0-13-7.7-10-10.3s6.7-3.2,6.7-5.9S427.7,573.3,426.7,560z"/>
</g>
</svg>
