<?xml version="1.0" encoding="utf-8"?>
<!-- Generator: Adobe Illustrator 21.1.0, SVG Export Plug-In . SVG Version: 6.00 Build 0)  -->
<svg version="1.1" id="Layer_2_copy" xmlns="http://www.w3.org/2000/svg" xmlns:xlink="http://www.w3.org/1999/xlink" x="0px"
	 y="0px" viewBox="0 0 626 457" style="enable-background:new 0 0 626 457;" xml:space="preserve">
<g>
	<path d="M532.5,289c-0.2-0.1-0.4-0.2-0.5-0.3c-19.3-71-48-129.3-160-114.7c-31.9-71.4-75.7-128.8-158-159.3
		C102.1-15.6,50.7,21.8,16,95.2c-36,97.7,78.5,190.7,78.5,190.7c3.4,41.9,24.6,60,56.1,64.2c0,0,0,0,0,0c15,21.5,26.7,41,33.3,61.7
		l-0.3,40.7c8.2-4.3,16-8.8,18-19.7l10-5.7l58.5,10.6c6.9,4.6,12.7,1.9,18.5-1.6l-26.4-11.8c2.6-5.2,13.6-4,22.7-5.2
		c-8.1-4.8-20.5-10.5-33.2-9.1c-11.9,0.8-25.3-2.4-39.5-7.9l-28.2-47.2l-0.1-0.2c3.5-31.7,13.3-55.7,44-70
		c74,19.2,147.3,22,220,11.4c17.5,6.5,35.1,8.2,53,2.8c2.1-0.1,4.7,0.5,7.6,1.6c31.6,11.5,104.1,83,107.1,87.9
		c3.5,2,5.5,1.7,6.1-0.4C609.6,368.3,551.8,301.1,532.5,289z"/>
</g>
</svg>
