<?xml version="1.0" encoding="utf-8"?>
<!-- Generator: Adobe Illustrator 21.1.0, SVG Export Plug-In . SVG Version: 6.00 Build 0)  -->
<svg version="1.1" id="Layer_2_copy" xmlns="http://www.w3.org/2000/svg" xmlns:xlink="http://www.w3.org/1999/xlink" x="0px"
	 y="0px" viewBox="0 0 626 457" style="enable-background:new 0 0 626 457;" xml:space="preserve">
<style type="text/css">
	.st0{fill:#91776A;}
	.st1{fill:#FFD8C5;}
	.st2{fill:#231815;}
	.st3{fill:#FFFFFF;}
</style>
<g>
	<path class="st0" d="M536,303.5l-3.5-14.5c-0.2-0.1-0.4-0.2-0.5-0.3c-19.3-71-48-129.3-160-114.7c-31.9-71.4-75.7-128.8-158-159.3
		C102.1-15.6,50.7,21.8,16,95.2c-36,97.7,78.5,190.7,78.5,190.7c3.4,41.8,24.5,60,56.1,64.2c0,0,0,0,0,0l33.4,4.8l-0.1-0.2
		c3.5-31.7,13.3-55.7,44-70c74,19.2,147.3,22,220,11.4c17.5,6.5,35.1,8.1,53,2.8c2.1-0.1,4.7,0.5,7.6,1.6l-6.9-14.4L536,303.5z
		 M498.7,268.7c0-0.1,0-0.1,0-0.2c0-0.1,0-0.1,0-0.2c0-0.2,0-0.3,0.1-0.5c0.4-2.5,2.6-4.5,5.2-4.5c2.9,0,5.3,2.4,5.3,5.3
		c0,2.9-2.4,5.3-5.3,5.3S498.7,271.6,498.7,268.7z"/>
	<path class="st1" d="M615.8,388.3c3.5,2,5.5,1.7,6.1-0.4c-12.3-19.6-70.1-86.8-89.3-98.9l3.5,14.5L501.7,286l6.9,14.4
		C540.2,311.9,612.7,383.4,615.8,388.3z"/>
	<path class="st1" d="M184,411.7l-0.3,40.7c8.2-4.2,16-8.8,18-19.7l10-5.7l58.6,10.6c6.8,4.6,12.7,1.9,18.4-1.6l-26.4-11.8
		c2.6-5.2,13.6-4,22.7-5.2c-8.1-4.8-20.5-10.5-33.2-9.1c-11.9,0.8-25.3-2.4-39.5-7.9l-28.2-47.2l-33.4-4.8
		C165.7,371.5,177.3,391,184,411.7z"/>
	<path class="st2" d="M509.3,268.7c0-2.9-2.4-5.3-5.3-5.3c-2.7,0-4.8,1.9-5.2,4.5c0.2-0.6,0.8-1,1.4-1c0.8,0,1.5,0.7,1.5,1.5
		s-0.7,1.5-1.5,1.5c-0.8,0-1.4-0.6-1.5-1.3c0,0.1,0,0.1,0,0.2c0,2.9,2.4,5.3,5.3,5.3S509.3,271.6,509.3,268.7z"/>
	<path class="st3" d="M498.7,268.3c0,0.1,0,0.1,0,0.2c0-0.2,0-0.5,0.1-0.7C498.7,268,498.7,268.1,498.7,268.3z"/>
	<path class="st3" d="M500.2,269.8c0.8,0,1.5-0.7,1.5-1.5s-0.7-1.5-1.5-1.5c-0.7,0-1.2,0.4-1.4,1c0,0.2-0.1,0.4-0.1,0.7
		C498.8,269.2,499.4,269.8,500.2,269.8z"/>
</g>
</svg>
