<?xml version="1.0" encoding="utf-8"?>
<!-- Generator: Adobe Illustrator 21.1.0, SVG Export Plug-In . SVG Version: 6.00 Build 0)  -->
<svg version="1.1" id="Layer_3" xmlns="http://www.w3.org/2000/svg" xmlns:xlink="http://www.w3.org/1999/xlink" x="0px" y="0px"
	 viewBox="0 0 960 720" style="enable-background:new 0 0 960 720;" xml:space="preserve">
<style type="text/css">
	.st0{fill:#FFFFFF;}
</style>
<polygon class="st0" points="672.1,80.4 683.8,78.5 672.1,76.5 675.4,71 670,74.2 667.9,58.6 665.9,74.2 660.5,71 663.8,76.5 
	652.1,78.5 663.8,80.4 660.5,85.9 665.9,82.7 667.9,98.3 670,82.7 675.4,85.9 "/>
<polygon class="st0" points="540.1,262.6 551.8,260.6 540.1,258.7 543.4,253.1 538,256.4 535.9,240.8 533.8,256.4 528.4,253.1 
	531.8,258.7 520.1,260.6 531.8,262.6 528.4,268.1 533.8,264.9 535.9,280.4 538,264.9 543.4,268.1 "/>
<polygon class="st0" points="769.3,262.6 781,260.6 769.3,258.7 772.6,253.1 767.2,256.4 765.2,240.8 763.1,256.4 757.7,253.1 
	761,258.7 749.3,260.6 761,262.6 757.7,268.1 763.1,264.9 765.2,280.4 767.2,264.9 772.6,268.1 "/>
<polygon class="st0" points="656.1,428.8 667.8,426.8 656.1,424.9 659.4,419.3 654,422.6 651.9,407 649.8,422.6 644.4,419.3 
	647.8,424.9 636.1,426.8 647.8,428.8 644.4,434.3 649.8,431.1 651.9,446.6 654,431.1 659.4,434.3 "/>
<polygon class="st0" points="662.6,225.2 668.9,224.1 662.6,223.1 664.4,220.1 661.5,221.9 660.4,213.5 659.3,221.9 656.4,220.1 
	658.2,223.1 651.9,224.1 658.2,225.2 656.4,228.1 659.3,226.4 660.4,234.8 661.5,226.4 664.4,228.1 "/>
<polygon class="st0" points="466.7,68.9 472.9,67.9 466.7,66.8 468.4,63.9 465.5,65.6 464.4,57.3 463.3,65.6 460.4,63.9 462.2,66.8 
	455.9,67.9 462.2,68.9 460.4,71.9 463.3,70.1 464.4,78.5 465.5,70.1 468.4,71.9 "/>
<polygon class="st0" points="33.1,144.7 39.4,143.6 33.1,142.6 34.9,139.6 32,141.4 30.9,133 29.8,141.4 26.9,139.6 28.7,142.6 
	22.4,143.6 28.7,144.7 26.9,147.6 29.8,145.9 30.9,154.2 32,145.9 34.9,147.6 "/>
<polygon class="st0" points="135.4,68.9 141.7,67.9 135.4,66.8 137.2,63.9 134.3,65.6 133.2,57.3 132.1,65.6 129.2,63.9 131,66.8 
	124.7,67.9 131,68.9 129.2,71.9 132.1,70.1 133.2,78.5 134.3,70.1 137.2,71.9 "/>
<polygon class="st0" points="107.3,296.5 113.6,295.5 107.3,294.4 109.1,291.5 106.2,293.2 105.1,284.9 104,293.2 101.1,291.5 
	102.9,294.4 96.6,295.5 102.9,296.5 101.1,299.5 104,297.7 105.1,306.1 106.2,297.7 109.1,299.5 "/>
</svg>
