<?xml version="1.0" encoding="utf-8"?>
<!-- Generator: Adobe Illustrator 21.1.0, SVG Export Plug-In . SVG Version: 6.00 Build 0)  -->
<svg version="1.1" id="Layer_2" xmlns="http://www.w3.org/2000/svg" xmlns:xlink="http://www.w3.org/1999/xlink" x="0px" y="0px"
	 viewBox="0 0 419 463" style="enable-background:new 0 0 419 463;" xml:space="preserve">
<g>
	<path d="M239.6,327.1c-0.6,0-0.9,0-0.9,0l33.3,43.5l14,10.2c10.7,13.8-0.8,24.4-9,34.4c5-13.7,1.8-25.7-11-28.3l-15.3,17l2.8-29.5
		L221,322c-32.5,16.9-57.8,47.1-59,23c-28.5,29.5-57.8,62.7-99.5,102.5c-10.1,8.8-29.2,14.3-55.2,1.8c-11.5-17.3,48-72.6,110-129.3
		c21.9-37.4,44.3-77.1,72-117.5c0.4-0.6,0.9-1.3,1.3-1.9c16.8-24.3,35.7-48.8,57.6-73.1c4.6-5.2,9.4-10.3,14.4-15.5
		c-18.6-11.3-14.3-36.7,10.7-34.7c-21.4-26.6-52.5-40-89.8-36.8C187,32.4,200,24.3,234.1,21c23.6-2.3,35.4-13.6,54.4-13.5
		c36.5,0,69.7,34.3,102.2,71.2c2,2.9,3.9,5.8,5.6,8.7c42,70,3.9,141.1-45,195.9C304.6,325.3,247.5,327.1,239.6,327.1z"/>
</g>
</svg>
