<?xml version="1.0" encoding="utf-8"?>
<!-- Generator: Adobe Illustrator 21.1.0, SVG Export Plug-In . SVG Version: 6.00 Build 0)  -->
<svg version="1.1" id="Layer_2" xmlns="http://www.w3.org/2000/svg" xmlns:xlink="http://www.w3.org/1999/xlink" x="0px" y="0px"
	 viewBox="0 0 419 463" style="enable-background:new 0 0 419 463;" xml:space="preserve">
<style type="text/css">
	.st0{fill:url(#SVGID_1_);}
	.st1{fill:url(#SVGID_2_);}
	.st2{fill:#898989;}
	.st3{fill:#FFFFFF;}
	.st4{fill:#231815;}
</style>
<g>
	<linearGradient id="SVGID_1_" gradientUnits="userSpaceOnUse" x1="5.9049" y1="71.6748" x2="414.3816" y2="71.6748">
		<stop  offset="0.1412" style="stop-color:#188F85"/>
		<stop  offset="1" style="stop-color:#183A79"/>
		<stop  offset="1" style="stop-color:#182F78"/>
	</linearGradient>
	<path class="st0" d="M379,109.5c-4.3-34.5,6.4-33,17.3-22.1c-1.7-2.9-3.6-5.8-5.6-8.7C358.2,41.8,325,7.5,288.5,7.5
		c-19,0-30.7,11.3-54.4,13.5C200,24.3,187,32.4,183.5,40.5c37.4-3.1,68.4,10.2,89.8,36.8c4.5,4.7,10.8,7.9,19.3,10.6
		c-10.5,6.9-20.5,15.1-30,24.1c-4.9,5.1-9.7,10.3-14.4,15.4C290.4,141.8,336.2,139,379,109.5z M281.7,36c-4.4,0-8-3.6-8-8s3.6-8,8-8
		s8,3.6,8,8S286.1,36,281.7,36z"/>
	<linearGradient id="SVGID_2_" gradientUnits="userSpaceOnUse" x1="5.9049" y1="295.0749" x2="414.3817" y2="295.0749">
		<stop  offset="0.1412" style="stop-color:#188F85"/>
		<stop  offset="1" style="stop-color:#183A79"/>
		<stop  offset="1" style="stop-color:#182F78"/>
	</linearGradient>
	<path class="st1" d="M230.3,315.3c0,0,25.9-19.3,37.2-26.8c11.9-7.9,99-42.5,129.5-87.5c20-29.6,7.3-67.5,6.5-67.5
		c-24.8,37.9-57.2,65.2-110.3,63.5h-32.7c-18.8,10.3-70.5,38.5-81.5,47c2.4-13.8,5.5-27.8,10.4-41.5c-27.8,40.4-50.1,80.2-72,117.5
		c-62,56.7-121.5,112-110,129.3c25.9,12.5,45.1,7,55.2-1.8c41.7-39.8,71-73,99.5-102.5c1.2,24.1,26.5-6.1,59-23
		C224.6,319.8,227.2,317.8,230.3,315.3L230.3,315.3z"/>
	<path class="st2" d="M250.7,404l15.3-17c12.8,2.6,16,14.7,11,28.3c8.3-10.1,19.7-20.7,9-34.5l-14-10.2l-33.3-43.6l-8.4-11.8
		c-3.2,2.5-5.7,4.5-9.3,6.7l32.5,52.5L250.7,404z"/>
	<path d="M260.5,197h32.7c53.2,1.7,85.6-25.6,110.3-63.5c0.8,0,13.5,37.9-6.5,67.5c-30.5,45-117.6,79.6-129.5,87.5
		c-11.3,7.5-37.2,26.8-37.2,26.8l0,0c0,0,0,0,0.1-0.1l9.2,11.8c7.9,0,65-1.8,111.7-43.8c48.9-54.8,87-125.9,45-195.9
		C385.4,76.5,374.7,75,379,109.5c-42.8,29.5-88.6,32.3-130.7,17.9c-21.9,24.3-40.8,48.8-57.6,73.1c-0.4,0.6-0.9,1.3-1.3,1.9
		c-4.9,13.7-8,27.7-10.4,41.5C190,235.5,241.7,207.3,260.5,197z"/>
	<path d="M230.3,315.3l8.4,11.8c0,0,0.3,0,0.9,0L230.3,315.3C230.4,315.3,230.4,315.3,230.3,315.3z"/>
	<path class="st3" d="M273.3,77.3c-25-2-29.3,23.3-10.7,34.7c9.6-9.1,19.5-17.2,30-24.1C284.2,85.2,277.8,82.1,273.3,77.3z"/>
	<path class="st4" d="M281.7,20c-4.4,0-8,3.6-8,8s3.6,8,8,8s8-3.6,8-8S286.1,20,281.7,20z M289.4,26.2c0,0.8-0.6,1.4-1.4,1.4
		s-1.4-0.6-1.4-1.4s0.6-1.4,1.4-1.4S289.4,25.4,289.4,26.2z"/>
	<circle class="st3" cx="288" cy="26.2" r="1.4"/>
</g>
</svg>
