<svg id="Layer_1" data-name="Layer 1" xmlns="http://www.w3.org/2000/svg" viewBox="0 0 316.453 431.332">
  <defs>
    <style>
      .cls-1 {
        fill: none;
        stroke: #fff;
        stroke-miterlimit: 10;
        stroke-width: 6px;
      }

      .cls-2 {
        fill: #fff;
      }
    </style>
  </defs>
  <title>web2_Clogo</title>
  <g>
    <path class="cls-1" d="M454.671,408.712a99.708,99.708,0,1,1,89.178-144.3l56.91-28.455a163.338,163.338,0,1,0,0,146.088l-56.91-28.455A99.686,99.686,0,0,1,454.671,408.712Z" transform="translate(-288.333 -142.667)"/>
    <path class="cls-1" d="M454.671,209.3a99.708,99.708,0,1,0,89.178,144.3L454.671,309l89.178-44.589A99.687,99.687,0,0,0,454.671,209.3Z" transform="translate(-288.333 -142.667)"/>
    <path class="cls-1" d="M600.759,235.96" transform="translate(-288.333 -142.667)"/>
    <polyline class="cls-1" points="255.516 121.748 166.338 166.338 255.516 210.927"/>
  </g>
  <g>
    <path class="cls-2" d="M312.1,529.944c0-17.11,11.9-26.12,27.029-26.12,10.333,0,16.532,4.547,16.532,4.547l-.909,10.084a24.441,24.441,0,0,0-14.713-5.208c-7.852,0-15.539,5.373-15.539,16.614,0,10.745,6.943,16.779,15.622,16.779a19.282,19.282,0,0,0,13.39-5.207l4.794,8.431a30.03,30.03,0,0,1-19.094,6.364C324.171,556.229,312.1,547.054,312.1,529.944Z" transform="translate(-288.333 -142.667)"/>
    <path class="cls-2" d="M380.044,520.438a25.449,25.449,0,0,1,17.027,6.116v29.1h-10.5v-6.116c-.827,1.57-3.472,6.694-10.084,6.694-9.175,0-14.8-6.942-14.8-17.274C361.695,528.456,368.225,520.438,380.044,520.438Zm-.827,27.111c4.463,0,7.356-4.3,7.356-12.646v-4.546a11.212,11.212,0,0,0-6.117-1.57c-5.373,0-8.018,4.629-8.018,10C372.44,543.665,374.341,547.55,379.218,547.55Z" transform="translate(-288.333 -142.667)"/>
    <path class="cls-2" d="M426.082,555.815c-.5,0-1.9.248-5.125.248-9.423,0-12.564-4.215-12.564-13.721V529.117h-6.447l2.066-8.1h4.381v-7.356l10.663-2.232v9.589h8.1v8.1h-8.1v13.391c0,3.637.661,4.96,2.976,5.29a35.835,35.835,0,0,0,6.034-.165Z" transform="translate(-288.333 -142.667)"/>
    <path class="cls-2" d="M438.892,556.063c-4.05,0-7.191-2.231-7.191-6.116,0-3.968,3.141-6.034,7.191-6.034,4.133,0,7.356,2.066,7.356,6.116C446.248,553.832,443.024,556.063,438.892,556.063Z" transform="translate(-288.333 -142.667)"/>
    <path class="cls-2" d="M451.537,529.944c0-17.11,11.9-26.12,27.029-26.12,10.332,0,16.531,4.547,16.531,4.547l-.909,10.084a24.437,24.437,0,0,0-14.713-5.208c-7.852,0-15.539,5.373-15.539,16.614,0,10.745,6.943,16.779,15.622,16.779a19.283,19.283,0,0,0,13.391-5.207l4.794,8.431a30.031,30.031,0,0,1-19.094,6.364C463.6,556.229,451.537,547.054,451.537,529.944Z" transform="translate(-288.333 -142.667)"/>
    <path class="cls-2" d="M519.727,556.146c-10.332,0-18.6-6.447-18.6-17.771,0-11.406,8.266-17.937,18.6-17.937s18.515,6.53,18.515,18.02C538.241,549.7,530.059,556.146,519.727,556.146Zm-.083-27.359c-4.3,0-7.935,3.554-7.935,9.588,0,6.117,3.637,9.423,7.935,9.423,4.464,0,8.018-3.306,8.018-9.34C527.661,532.341,524.107,528.787,519.644,528.787Z" transform="translate(-288.333 -142.667)"/>
    <path class="cls-2" d="M585.436,555.65V535.979c0-4.381-1.157-6.943-4.629-6.943-4.3,0-4.794,3.967-4.794,10.91V555.65H565.35v-20c0-4.464-1.322-6.612-4.711-6.612-3.968,0-4.794,3.224-4.794,10.91V555.65h-10.5V521.018h10.5v5.207c.909-1.653,2.81-4.877,6.86-5.621a15.533,15.533,0,0,1,3.389,0,9.019,9.019,0,0,1,8.349,6.2,10.958,10.958,0,0,1,9.919-6.447c7.356,0,11.819,4.216,11.819,14.8v20.5Z" transform="translate(-288.333 -142.667)"/>
  </g>
</svg>
